<?xml version="1.0" encoding="UTF-8"?>
<svg width="70px" height="70px" viewBox="0 0 70 70" version="1.1" xmlns="http://www.w3.org/2000/svg" xmlns:xlink="http://www.w3.org/1999/xlink">
    <!-- Generator: Sketch 54.1 (76490) - https://sketchapp.com -->
    <title>Group</title>
    <desc>Created with Sketch.</desc>
    <g id="Page-4" stroke="none" stroke-width="1" fill="none" fill-rule="evenodd">
        <g id="Artboard" transform="translate(-285.000000, -137.000000)">
            <g id="Group" transform="translate(285.000000, 137.000000)">
                <path d="M50.6079675,3.6642334 C55.0394127,0.376775347 61.0927765,-0.291090168 65.5621283,4.09050577 C70.4210065,8.85397979 70.0763597,14.9763216 66.4910803,19.7072145 C68.7389678,24.3274951 70,29.5164826 70,35 C70,54.3299662 54.3299662,70 35,70 C15.6700338,70 0,54.3299662 0,35 C0,29.437081 1.29781624,24.1772833 3.60718813,19.5068674 C0.00117633436,14.7719897 -0.354908641,8.63424854 4.51396741,3.86097301 C9.03530447,-0.571587456 15.1777167,0.1634623 19.6220979,3.55047426 C24.2637289,1.27657908 29.482784,0 35,0 C40.6085595,0 45.9090034,1.31919926 50.6079675,3.6642334 L50.6079675,3.6642334 Z" id="Path" fill-opacity="0.5" fill="#25262A"></path>
                <path d="M47.6960087,36.9656597 L29.349942,47.2046865 C28.3123296,47.7837829 26.9571418,47.4850417 26.3230453,46.5374294 C26.1117834,46.2217134 26,45.8588848 26,45.4888827 L26,25.010829 C26,23.9002788 26.9857834,23 28.2018088,23 C28.6069521,23 29.0042406,23.1020875 29.349942,23.2950251 L47.6960087,33.534052 C48.7336211,34.1131484 49.0607354,35.3507903 48.4266389,36.2984026 C48.2444973,36.5706003 47.9940585,36.7993166 47.6960087,36.9656597 Z" id="Triangle" fill="#FFFFFF"></path>
            </g>
        </g>
    </g>
</svg>